<svg xmlns="http://www.w3.org/2000/svg" viewBox="0 0 420 420" role="img" aria-label="Logo DA-IBS">
  <defs>
    <linearGradient id="g1" x1="0" y1="0" x2="1" y2="1">
      <stop offset="0%" stop-color="#1f4f94"/>
      <stop offset="100%" stop-color="#243f8f"/>
    </linearGradient>
    <linearGradient id="g2" x1="0" y1="0" x2="1" y2="1">
      <stop offset="0%" stop-color="#d4a62a"/>
      <stop offset="100%" stop-color="#f0c44a"/>
    </linearGradient>
  </defs>

  <rect width="420" height="420" rx="24" fill="#ffffff"/>

  <g transform="translate(210,130)">
    <circle r="72" fill="url(#g1)" opacity="0.12"/>
    <path d="M0,-66 C40,-58 63,-26 63,16 L-63,16 C-63,-26 -40,-58 0,-66Z" fill="url(#g1)"/>
    <circle cx="16" cy="-20" r="12" fill="#fff"/>
    <circle cx="21" cy="-20" r="10" fill="url(#g1)"/>
    <path d="M0,-94 l8,18 20,2 -15,13 4,20 -17,-9 -17,9 4,-20 -15,-13 20,-2z" fill="url(#g2)"/>
    <path d="M-88,28 Q0,2 88,28 Q0,54 -88,28Z" fill="url(#g1)" opacity="0.95"/>
    <path d="M-98,35 Q0,20 98,35" stroke="url(#g2)" stroke-width="8" fill="none"/>
  </g>

  <text x="210" y="340" text-anchor="middle" font-size="72" font-family="Georgia, 'Times New Roman', serif" font-weight="700">
    <tspan fill="#1f4f94">DA-</tspan><tspan fill="#d6a128">IBS</tspan>
  </text>
</svg>
